<svg id="logo_gpg_only" xmlns="http://www.w3.org/2000/svg" width="56" height="56" viewBox="0 0 56 56">
  <rect id="bg56x56" width="56" height="56" fill="#fff" opacity="0"/>
  <path id="logo_w" d="M-4486.023,174.944v-16.85h5.734c4.1,0,6.207,2.519,6.207,6.12a6,6,0,0,1-1.613,4.522,6.057,6.057,0,0,1-4.866,1.914h-1.738v4.294Zm5.163-13.978-1.439.037v6.763h1.439c1.95,0,3.2-.869,3.2-3.413a3.013,3.013,0,0,0-.79-2.483,2.924,2.924,0,0,0-2.124-.919A2.79,2.79,0,0,0-4480.86,160.966Zm10.253,11.56a8.047,8.047,0,0,1-2.183-5.97,8.5,8.5,0,0,1,2.381-6.3,8.513,8.513,0,0,1,6.344-2.419,12.485,12.485,0,0,1,4.4.718v3.425a8.5,8.5,0,0,0-4.445-1.019,4.686,4.686,0,0,0-3.575,1.472,5.538,5.538,0,0,0-1.378,3.942,5.569,5.569,0,0,0,1.241,3.879,4.287,4.287,0,0,0,3.352,1.373,4.524,4.524,0,0,0,2.011-.378v-3.187h-3.154v-2.922h6.665l.013,8.174a10.96,10.96,0,0,1-5.709,1.371c-.15.009-.3.014-.45.014A8.08,8.08,0,0,1-4470.607,172.526Zm-29.939-.012a8.051,8.051,0,0,1-2.185-5.97,8.5,8.5,0,0,1,2.384-6.3,8.507,8.507,0,0,1,6.343-2.419,12.484,12.484,0,0,1,4.394.718v3.425a8.5,8.5,0,0,0-4.433-1.007,4.683,4.683,0,0,0-3.573,1.472,5.542,5.542,0,0,0-1.378,3.942,5.57,5.57,0,0,0,1.24,3.879,4.29,4.29,0,0,0,3.352,1.373,4.522,4.522,0,0,0,2.011-.378v-3.187h-3.142v-2.922h6.667v8.174a10.964,10.964,0,0,1-5.723,1.359c-.149.009-.3.014-.45.014A8.077,8.077,0,0,1-4500.546,172.514Zm.21-24.356c0-1.462,1.9-2.77,4.965-3.778a53.028,53.028,0,0,0,15.679,2.027,53.017,53.017,0,0,0,15.576-2.027c3.042,1.008,4.928,2.317,4.893,3.778,0,3.2-9.2,5.781-20.557,5.781S-4500.336,151.344-4500.336,148.158Zm42.03-.252c0-3.9-9.67-7.091-21.611-7.091s-21.61,3.162-21.61,7.066c0,1.36,1.167,2.619,3.191,3.7-3.663-1.386-5.513-3.187-5.513-5.164,0-4.344,10.5-7.9,23.832-7.933h.2c13.38.037,23.833,3.589,23.833,7.959,0,1.977-1.851,3.778-5.51,5.163C-4459.473,150.526-4458.306,149.266-4458.306,147.906Zm3.067-.542a3.049,3.049,0,0,0-.25-2.518c-2.048-3.867-11.605-7.342-24.39-7.292s-22.357,3.425-24.392,7.292a3.052,3.052,0,0,0-.248,2.518,4.033,4.033,0,0,0,1.451,1.776,4.466,4.466,0,0,1-2.89-5.126c1.115-5.453,11.592-9.042,25.94-9.118h.2c14.349.076,24.825,3.665,25.993,9.118a4.467,4.467,0,0,1-2.892,5.126A4.046,4.046,0,0,0-4455.239,147.364Zm-4.3-10.125c-5.189-2.481-11.4-3.123-19.986-3.123h-.794c-8.588.025-14.894.692-19.985,3.123s-6.939,5.175-6.393,8.387c-.856-2.393,0-6.07,3.414-8.588,5.041-3.376,12.227-5.037,22.8-5.037h1.129c10.563.062,17.788,1.674,22.754,5.037,3.461,2.518,4.307,6.2,3.449,8.588C-4452.6,142.427-4454.345,139.72-4459.534,137.239Z" transform="translate(4508 -125)" fill="#fff"/>
</svg>
